<svg width="58" height="58" viewBox="0 0 58 58" fill="none" xmlns="http://www.w3.org/2000/svg">
<path opacity="0.5" d="M41.0835 14.4968V25.3718C39.3867 25.3699 37.7086 25.7262 36.1589 26.4175C34.6093 27.1088 33.2231 28.1195 32.0911 29.3835C30.0971 31.5987 28.9958 34.4748 29.0002 37.4552C29.0009 39.5939 29.5687 41.6943 30.6458 43.5421C31.7228 45.3899 33.2706 46.9191 35.1312 47.9737C31.9147 48.9464 27.6444 49.5385 22.9585 49.5385C12.9487 49.5385 4.8335 46.833 4.8335 43.4968V14.4968" stroke="#3AB3E5" stroke-width="2.41667" stroke-linecap="round" stroke-linejoin="round"/>
<path opacity="0.5" d="M4.8335 33.8301C4.8335 37.1663 12.9487 39.8717 22.9585 39.8717C25.142 39.8717 27.236 39.7437 29.1742 39.5068M4.8335 24.1634C4.8335 27.4996 12.9487 30.2051 22.9585 30.2051C26.2887 30.2051 29.4098 29.9054 32.0911 29.3834M45.9168 37.4551H41.0835V32.6217M41.0835 14.4967C41.0835 17.833 32.9683 20.5384 22.9585 20.5384C12.9487 20.5384 4.8335 17.833 4.8335 14.4967C4.8335 11.1605 12.9487 8.45508 22.9585 8.45508C32.9683 8.45508 41.0835 11.1605 41.0835 14.4967Z" stroke="#3AB3E5" stroke-width="2.41667" stroke-linecap="round" stroke-linejoin="round"/>
<path opacity="0.7" d="M53.1667 37.4552C53.1667 44.1288 47.757 49.5385 41.0833 49.5385C38.9204 49.5385 36.888 48.9706 35.1311 47.9737C33.2704 46.9191 31.7227 45.3899 30.6456 43.5421C29.5686 41.6943 29.0007 39.594 29 37.4552C29 34.3522 30.1697 31.5223 32.0909 29.3835C33.223 28.1195 34.6092 27.1088 36.1588 26.4175C37.7084 25.7262 39.3865 25.3699 41.0833 25.3718C47.757 25.3718 53.1667 30.7815 53.1667 37.4552Z" stroke="#3AB3E5" stroke-width="2.41667" stroke-linecap="round" stroke-linejoin="round"/>
</svg>
